<svg width="24" height="24" viewBox="0 0 24 24" fill="none" xmlns="http://www.w3.org/2000/svg">
	<path d="M5 4L13.5986 4.02143L13.9663 4.11314C15.7494 4.55779 17.0573 5.69172 17.6973 7.34799C17.8513 7.74668 17.9926 8.39265 18.0186 8.81688L18.0398 9.16287H15.4416L15.4214 8.99723C15.3543 8.44679 15.1799 8.00829 14.8674 7.60396C14.5549 7.19955 14.0846 6.87167 13.5635 6.69487L13.2833 6.5998L7.62685 6.58001V16.9741H10.2187V19.5546H5V4Z" fill="white"/>
	<path d="M12.1801 16.9847L12.6441 16.9613C12.8994 16.9483 13.208 16.9145 13.33 16.886C14.0787 16.711 14.8037 16.141 15.1414 15.4619C15.4238 14.8938 15.4137 14.9834 15.4283 12.9377L15.4413 11.1157H18.0334L18.0069 15.0736L17.9163 15.4398C17.6617 16.4688 17.2197 17.2562 16.4877 17.985C15.8935 18.5766 15.237 18.9884 14.4622 19.2553C13.8836 19.4547 13.5028 19.521 12.8018 19.5441L12.1801 19.5646V16.9847Z" fill="white"/>
</svg>