<svg width="24" height="24" viewBox="0 0 24 24" fill="none" xmlns="http://www.w3.org/2000/svg">
	<path d="M17.1905 4L13.0385 15.4073C12.9872 15.5477 12.8974 15.6709 12.7793 15.7627C12.6612 15.8544 12.5197 15.9111 12.3709 15.9262V15.9316H16.76C17.1036 15.9316 17.3978 15.7131 17.5073 15.4076L21.6607 4H17.1905Z" fill="white"/>
	<path d="M12.0127 15.7585C12.2673 15.7585 12.4902 15.632 12.6265 15.4404C12.6407 15.4204 12.6905 15.3505 12.7258 15.2556L14.2487 11.0695L13.3578 8.62473C13.3059 8.50093 13.2219 8.39326 13.1144 8.31288C13.0069 8.2325 12.8798 8.18232 12.7464 8.16756C12.613 8.1528 12.478 8.17398 12.3556 8.22892C12.2331 8.28385 12.1275 8.37054 12.0498 8.48C12.0353 8.5 11.976 8.58909 11.9505 8.66473L10.4276 12.8495L11.3225 15.304C11.3806 15.4389 11.4769 15.5539 11.5996 15.6346C11.7222 15.7154 11.8659 15.7585 12.0127 15.7585Z" fill="white"/>
	<path d="M12.3382	 7.98836H7.90073C7.55709 7.98836 7.26291 8.20582 7.152 8.51273L3 19.92H7.47018L11.6225 8.51309C11.6764 8.36469 11.7732 8.23567 11.9007 8.14249C12.0281 8.0493 12.1804 7.99615 12.3382 7.98982V7.98836Z" fill="white"/>
</svg>