<?xml version="1.0" encoding="UTF-8"?><svg id="a" xmlns="http://www.w3.org/2000/svg" viewBox="0 0 299.63 204.19"><path d="M79.44,83.15h.09v-.09s-.06.06-.09.09Z" fill="#fff" stroke-width="0"/><path d="M36.33,60.63s.03-.04.05-.07c-.01-.01-.02.02-.05.07Z" fill="#fff" stroke-width="0"/><path d="M70.99,164.45c4.06-.94,7.99-1.84,11.92-2.75,3-.69,6-1.34,8.99-2.07.77-.19,1.23,0,1.77.53,10.55,10.49,23.02,17.61,37.41,21.4,40.6,10.68,83.28-11.73,97.61-51.3.42-1.15,1.03-1.57,2.15-1.82,6.51-1.43,13.01-2.93,19.52-4.4.26-.06.53-.07.82-.11-5.37,28.35-28.9,64.29-71.92,76.39-42.84,12.05-85.03-5.25-108.26-35.88Z" fill="#fff" stroke-width="0"/><path d="M230.49,37.52c-4.62.99-9.1,1.96-13.58,2.93-2.65.57-5.32,1.11-7.96,1.72-.73.17-1.23.05-1.81-.48-12.44-11.38-27.01-18.3-43.68-20.82-33.25-5.04-66.86,11.47-83.37,41-1.46,2.61-2.64,5.37-4,8.04-.21.4-.63.88-1.04.97-7.25,1.62-14.51,3.18-22.01,4.81,2.84-10.63,7.2-20.41,13.2-29.43,12.86-19.35,30.2-33.07,52.18-40.64,42.71-14.72,87.09.8,112.07,31.91Z" fill="#fff" stroke-width="0"/><path d="M153.22,170.33c-1.16,0-2.32-.05-3.47.01-.93.05-1.47-.39-1.93-1.12-1-1.58-1.22-3.26-.77-5.05,1.42-5.68,2.85-11.36,4.27-17.04.17-.67.45-1.03,1.22-1.2,6.89-1.49,13.76-3.07,20.65-4.57.38-.08,1.04.13,1.26.43,3.36,4.47,6.64,8.99,9.99,13.46,1.51,2.01,1.49,4.04.31,6.14-.2.35-.58.66-.94.85-7.96,4.27-16.43,6.89-25.44,7.74-1.71.16-3.42.26-5.13.38,0-.02,0-.04,0-.05Z" fill="#fff" stroke-width="0"/><path d="M161.06,39.62c-.52,2.25-1.03,4.5-1.55,6.74-.45,1.94-.92,3.88-1.36,5.82-.14.64-.42,1.02-1.12,1.17-7.6,1.6-15.2,3.23-22.8,4.87-.61.13-.99.08-1.39-.49-2.77-3.91-5.58-7.79-8.39-11.67-1.24-1.71-1.29-3.65-1.15-5.62.02-.3.51-.67.86-.83,5.27-2.34,10.75-3.99,16.45-4.9,5.18-.83,10.39-1.01,15.64-.78,3.37.14,3.76,1.06,4.58,4.44.09.38.05.8.06,1.19.06.01.12.03.17.04Z" fill="#fff" stroke-width="0"/><path d="M227.97,129.53c-10.56,26.32-29.1,44.21-56.93,51.04-29.23,7.18-54.81-.77-76.67-21.05.02-.14.03-.28.05-.42,1.19-.28,2.37-.64,3.57-.79.39-.05.92.36,1.27.69,7.94,7.28,16.99,12.72,27.18,16.22,38.66,13.28,80.93-5.75,96.59-43.51.52-1.26,1.16-1.96,2.52-2.06.74-.06,1.46-.31,2.19-.47.08.12.16.23.24.35Z" fill="#fff" stroke-width="0"/><path d="M77.16,70.43C99.75,18.02,166.45,5.22,206.42,42.65c-1.36.3-2.61.65-3.9.83-.36.05-.84-.35-1.19-.64-9.75-8.13-20.81-13.61-33.22-16.31-34.9-7.57-70.27,9.54-85.95,41.6-.49,1-1.04,1.59-2.17,1.71-.9.09-1.78.36-2.83.58Z" fill="#fff" stroke-width="0"/><path d="M134.83,149.92c-.78,3.26-1.48,6.24-2.2,9.21-.27,1.12-.54,2.25-.9,3.34-.71,2.15-2.53,2.84-4.51,3.25-.21.04-.47-.05-.69-.14-6.04-2.42-11.64-5.6-16.76-9.61-.06-.04-.08-.13-.23-.37,8.38-1.88,16.69-3.75,25.28-5.69Z" fill="#fff" stroke-width="0"/><path d="M263.76,142.57c-1.12,2.07-2.1,4.2-2.86,6.44-.46,1.36-.49,2.91-.47,4.37.02,1.34.37,2.68,1.39,3.61.25.22,1.16,1.26.96,2.46,0,.01-.01.01-.01.01-.93,2.31-1.7,4.68-2.23,7.15-.43,1.97-.44,3.95.77,5.78.27.16.64,1.57.57,2.56-2.71,6.96-4.1,14.23-2.96,22.11.19-.18.25-.4.3-.62,1.22-6.06,3.22-11.85,5.98-17.39,3.41-6.82,8.19-12.65,13.2-18.31,1.02-1.15,2.03-2.3,3.01-3.41.01,0,.02-.02.03-.03.71-.95,1.35-1.52,2.05-2.33,4.26-4.88,8.4-9.86,11.55-15.56,3.26-5.89,5.17-12.11,4.44-18.94-.4-3.67-1.34-7.15-3.59-10.16-2.34-3.11-5.94-3.58-9.04-1.22-.57.44-1.13.89-1.76,1.24-2.89,1.57-5.76.47-6.58-2.7-.46-1.76-.64-3.63-.66-5.45-.13-12.84-2.22-25.37-5.97-37.63-3.63-11.86-8.41-23.2-15.35-33.54-.4-.59-.83-1.15-1.23-1.68-1.35.96-2.56,1.94-3.88,2.75-4.19,2.59-8.79,4.23-13.56,5.28-15.33,3.36-30.68,6.64-46.03,9.93-38.53,8.29-77.08,16.54-115.61,24.87-12.05,2.6-24.07,5.41-36.11,8.09-1.01.22-2.06.36-3.09.31-2.15-.09-3.15-1.64-2.34-3.65.4-.99,1-1.9,1.57-2.82,1.36-2.18,2.54-4.44,2.81-7.06.19-1.87-.5-3.38-1.89-4.64-.36.01-.87-.76-.79-1.83,1.02-1.67,2.03-3.35,3-5.06.65-1.15.97-2.54,1.19-3.86.31-1.95.12-3.88-1.17-5.58-.4-.31-.92-.84-1.14-1.98,1.13-2.58,2.1-5.23,2.98-7.9.59-1.81.5-3.74-.58-5.41-.29-.43-.85-.89-.73-1.96,3.26-7.07,5.16-14.56,4.42-22.92-.19.17-.24.19-.25.23-.1.38-.2.76-.3,1.15-1.99,7.65-5.15,14.77-9.62,21.29-3.61,5.27-8.03,9.84-12.49,14.37-.63.65-3.29,3.4-4.01,4.15-4.02,4.18-7.94,8.45-11.18,13.28C2.92,65.68.33,71.38.04,77.9c-.22,4.72.42,9.28,3.17,13.29,3.71,5.42,10.23,6.24,15.18,1.93,1.03-.89,1.93-1.91,2.93-2.83,2.34-2.18,5.52-1.25,6.12,1.88.29,1.46.28,3.03.14,4.52-.7,7.4-.51,14.77.52,22.13,1.91,13.6,6.13,26.51,12.04,38.87,2.3,4.82,4.87,9.52,7.39,14.42,3.68-3.64,6.11-5.02,11.1-6.18,13.57-3.17,27.14-6.35,40.74-9.43,25.94-5.86,51.9-11.65,77.85-17.49,22.9-5.15,45.8-10.37,68.72-15.46,3.81-.85,7.71-1.29,11.59-1.68,2.1-.22,4.24.13,6.19,1.11,2.12,1.06,2.94,2.9,2.01,5.08-.58,1.38-1.54,2.59-2.34,3.88-.64,1.05-1.44,2.03-1.92,3.15-.9,2.14-.14,4.19,1.85,5.49.17.11.75,1.01.44,1.98M101.71,133.7c-.98,2.49-1.93,4.99-2.92,7.47-.82,2.05-1.18,4.13-.8,6.34.06.36-.23.79-.51,1.19-1.35-2.55-3.45-3.08-5.89-2.53-10.76,2.41-21.52,4.77-32.23,7.4-2.78.68-5.35,2.22-8.01,3.39-.5.22-.94.57-1.49.9-.29-.4-.53-.74-.79-1.09,1.07-.77,2.08-1.47,3.07-2.21,1.34-.99,1.94-2.27,1.94-4,.01-12.19.04-24.38.18-36.57.09-7.55.39-15.1.61-22.65.09-3-.83-4.4-3.67-5.4-.24-.09-.46-.22-.69-.32.02-.1.05-.2.07-.29,2.94.18,5.88.35,8.82.57,1.01.08,2,.24,2.49-1.35.34,1.68,1.27,1.43,2.26,1.34,4.13-.35,7.52-2.26,10.61-4.88.12.07.23.13.35.19-.12.31-.17.67-.37.9-1.07,1.24-2.34,2.34-3.21,3.7-.7,1.09-1.28,2.48-1.32,3.76-.55,15.97-.99,31.95-1.46,47.93-.01.28,0,.55,0,1.02,1.77-.48,3.43-.85,5.05-1.37,6.8-2.19,13.58-4.46,20.39-6.63,4.43-1.42,7.9-4.08,10.69-7.75.22-.29.66-.41,1.01-.61.09.1.17.21.26.32-1.48,3.74-2.96,7.48-4.44,11.23ZM94.01,122.05c-9.99-.11-18.1-8.4-17.98-18.36.14-10.21,8.42-18.26,18.63-18.1,9.91.16,17.94,8.43,17.84,18.39-.1,10.15-8.32,18.18-18.49,18.07ZM148.57,72.05c-4.75,12.03-9.56,24.04-14.31,36.06-1.76,4.46-3.42,8.95-5.12,13.43-.12.33-.23.66-.41,1.15.42-.1.72-.15,1-.25,3.09-1.07,6.17-2.19,9.28-3.22,3.04-1.02,5.54-2.79,7.64-5.18.37-.42.75-.82,1.38-1.51-.06.86.08,1.5-.15,1.96-1.64,3.26-1.96,6.81-2.35,10.33-.24,2.07-.32,4.14-.46,6.22-.09,1.37-.73,1.74-1.87,1.05-1.29-.78-2.68-.75-4.05-.32-6.29,1.96-12.57,3.93-18.84,5.93-3.16,1.01-6.29,2.1-9.44,3.13-.43.14-.89.19-1.56.33.26-.62.42-1.01.59-1.4,5.99-13.42,12.02-26.82,16.94-40.67.89-2.52,1.57-5.12,2.22-7.7.18-.71.14-2.05-.2-2.2-.72-.32-1.91-.39-2.56,0-1.93,1.16-3.72,2.57-5.51,3.95-.9.7-1.68,1.54-2.33,2.15-.4-1.91-.65-3.98-1.28-5.93-.87-2.67-2.66-4.75-5.12-6.11-1-.55-1.31-1.16-.95-2.27,12.67-2.24,25.12-5.47,37.44-10.45.02.59.18,1.12.02,1.51ZM172.52,121.78c-3.4.85-6.85,1.54-10.2,2.57-3.31,1.01-6.53,2.35-9.87,3.58-.5-.48-.46-.89.28-1.36,2.07-1.29,3.11-3.08,3.17-5.64.4-16.22.9-32.44,1.36-48.66.04-1.5-.31-1.77-2.83-2.38.25-.26.5-.71.77-.73,5.85-.48,11.47-2.02,17.31-3.51-.18.3-.3.75-.56.88-1.57.76-1.92,2.07-1.96,3.66-.32,13.99-.67,27.97-1.02,41.95-.03,1.28-.06,2.56-.11,3.84-.09,2.48.76,3.75,3.11,4.63.22.08.47.11.67.23.17.1.43.38.4.45-.11.2-.31.43-.52.49ZM214.35,111.83c-4.19-1.46-8.02-.19-11.83.68-4.87,1.11-9.71,2.34-14.5,3.73-2.75.79-5.38,1.99-8.07,2.99-.31.12-.66.13-1,.18-.02-.1-.05-.21-.08-.32.81-.69,1.63-1.36,2.41-2.08.95-.89,1.38-1.96,1.4-3.3.21-15.47.44-30.93.73-46.4.03-1.85-.3-3.32-2.19-4.06-.12-.05-.16-.31-.33-.64,1.14-.09,2.16-.1,3.15-.26,9.68-1.49,19.32-3.13,28.6-6.38.95-.34,1.23-.02,1.25.89.07,4.55.17,9.11.23,13.66.01.38-.19.77-.29,1.15-.12.02-.23.04-.35.05-1.58-3.22-4.39-3.75-7.44-3.27-3.19.49-6.32,1.31-9.47,1.98-.79.17-1.1.59-1.08,1.42.05,2.75.02,5.5.02,8.55,2.81-.52,5.64-.91,8.39-1.62.87-.23,1.54-1.3,2.27-2.02.25-.25.4-.62.88-.87.04.29.12.57.12.85.01,4.32.01,8.64.01,12.95-.01,1.28-.11,1.18-1.25.79-1.44-.5-3.02-.95-4.5-.87-1.8.1-3.58.74-5.33,1.24-.36.1-.84.62-.85.95-.05,4.27-.04,8.54-.04,12.88,2.93-.7,6.06-1.45,9.19-2.2,1.17-.29,2.31-.69,3.49-.86,2.78-.39,4.64-1.95,5.95-4.32.21-.39.57-.7.86-1.04.13.06.25.13.38.2-.24,5.07-.48,10.14-.73,15.37ZM259.19,113.42c-5.03-4.45-11.18-4.47-17.61-4.09.13-.43.13-.83.33-.99.84-.7.96-1.61.64-2.51-1.55-4.44-3.16-8.87-4.79-13.29-.09-.23-.51-.47-.79-.49-.94-.06-1.9-.02-3.01-.02,0,.8-.01,1.5,0,2.21.01,3.47.04,6.95.02,10.43,0,1.42.14,2.74,1.67,3.48-.02.12-.04.24-.07.36-.45.12-.94.4-1.35.32-5.04-.96-9.94-.66-14.66,1.47-.33.15-.72.16-1.08.23-.03-.11-.06-.23-.09-.35.94-.79,1.97-1.49,2.78-2.39.51-.57.95-1.44.97-2.18.38-14.62.69-29.24,1.02-43.86.01-.36.01-.72,0-1.08-.02-3.35-.98-4.51-4.36-5.38.3-.16.61-.47.9-.46,6.82.23,13.66.31,20.45.85,2.55.21,5.14,1.24,7.49,2.36,11.28,5.34,11.81,19.52,5.03,26.66-1.42,1.49-3.08,2.75-4.76,4.24,1.07,2.84,2.2,5.86,3.35,8.87.75,1.98,1.63,3.92,2.27,5.93,1.02,3.19,2.93,5.74,5.43,7.88.62.53.88,1,.22,1.8Z" fill="#fff" stroke-width="0"/><path d="M212.81,132.83c-1.99,3.11-3.9,6.28-5.99,9.32-1.31,1.9-2.9,3.61-4.32,5.43-.54.69-1.15.83-1.99.69-1.7-.28-3.11-1.03-4.13-2.4-1.92-2.6-3.79-5.24-5.68-7.86-.09-.12-.12-.27-.23-.53,7.4-1.66,14.71-3.29,22.03-4.93l.3.29Z" fill="#fff" stroke-width="0"/><path d="M115.61,62.21c-7.55,1.62-14.92,3.21-22.29,4.79-.09-.1-.18-.2-.26-.31,2.08-2.8,4.1-5.65,6.27-8.38,1.36-1.71,2.97-3.23,4.44-4.85.53-.59,1.08-.77,1.9-.63,2.11.35,3.85,1.32,5.16,2.97,1.6,2.03,3.1,4.14,4.79,6.41Z" fill="#fff" stroke-width="0"/><path d="M36.33,60.63s.03-.04.05-.07c-.01-.01-.02.02-.05.07Z" fill="#fff" stroke-width="0"/><path d="M190.32,46.19c-4.72,1.01-9.43,2.02-14.28,3.06.61-3.33,1.2-6.45,4.23-8.32.31-.19.85-.36,1.11-.21,3.04,1.64,6.04,3.34,9.05,5.02l-.12.45Z" fill="#fff" stroke-width="0"/><path d="M234.78,79.8v-13.16c2.53-.36,4.96-.25,7.25.91,2.22,1.12,3.16,3.05,3.24,5.46.08,2.39-.98,4.16-3.05,5.29-2.3,1.25-4.79,1.6-7.44,1.51Z" fill="#fff" stroke-width="0"/><path d="M94.33,109.34c-3.09.02-5.6-2.46-5.6-5.52,0-3.01,2.48-5.5,5.49-5.53,3.07-.03,5.58,2.47,5.58,5.54,0,3.03-2.44,5.49-5.48,5.51Z" fill="#fff" stroke-width="0"/><line x1="17.68" y1="47.08" x2="19.6" y2="44.69" fill="none" stroke-width="0"/></svg>